PathFileType	4	(X/Y/Z)	C:/Users/beibeiliu/ov580/test_trc/User1\sequence.32_training_dense_left.trc
DataRate	CameraRate	NumFrames	NumMarkers	Units	OrigDataRate	OrigDataStartFrame	OrigNumFrames
120	120	11	19	mm	120	57	224
Frame#	Time	ThumbCMC			ThumbMCP			ThumbIP			ThumbTip			IndexMCP			IndexPIP			IndexTip			MiddleMCP			MiddlePIP			MiddleTip			RingMCP			RingPIP			RingTip			PinkyMCP			PinkyPIP			PinkyTip			BackHand1			BackHand2			BackHand3	
		X0	Y0	Z0	X1	Y1	Z1	X2	Y2	Z2	X3	Y3	Z3	X4	Y4	Z4	X5	Y5	Z5	X6	Y6	Z6	X7	Y7	Z7	X8	Y8	Z8	X9	Y9	Z9	X10	Y10	Z10	X11	Y11	Z11	X12	Y12	Z12	X13	Y13	Z13	X14	Y14	Z14	X15	Y15	Z15	X16	Y16	Z16	X17	Y17	Z17	X18	Y18	Z18	
56	0.466667	-86.9386	1.83987	70.4754	-62.5605	-7.67067	50.2948	-48.6001	-7.34983	25.2186	-41.025	-13.119	2.26501	-77.559	49.0197	-1.31797	-73.5903	47.7091	-32.8143	-75.7155	26.3363	-54.4767	-100.526	60.58	-13.8226	-97.5644	53.9093	-48.16	-101.931	25.8386	-70.4356	-124.81	54.4249	-11.1316	-122.791	45.7654	-48.2512	-119.735	18.8832	-62.7068	-150.42	43.2973	-3.27927	-146.752	37.2653	-30.589	-137.476	9.3573	-47.1991	-138.225	48.1037	42.0408	-148.009	36.6852	77.2968	-105.377	34.3239	63.9574	
57	0.475	-89.5551	1.62259	73.399	-65.7203	-6.36353	52.2918	-52.6801	-4.98588	23.8471	-45.5072	-10.2299	1.70066	-77.1162	49.4384	-4.05606	-77.2926	45.0369	-34.9196	-77.7363	15.9362	-50.0182	-100.98	59.0675	-15.2092	-97.2552	49.7238	-45.8929	-100.585	10.9783	-61.2886	-122.436	52.6734	-17.8691	-119.18	37.6895	-47.496	-120.116	8.55796	-52.194	-150.484	40.7222	-7.3077	-145.287	23.9235	-33.8493	-133.353	-4.59734	-34.9542	-138.846	45.5768	43.1785	-143.237	36.9789	75.9267	-107.724	36.2048	66.2658	
58	0.483333	-85.0035	1.65419	74.8723	-64.3627	-6.22244	51.3204	-50.5488	-6.87175	27.7798	-44.6174	-10.7954	-0.348962	-77.978	47.7754	-2.60663	-76.8514	41.774	-34.9666	-78.598	5.1961	-44.4324	-101.298	54.7727	-15.3527	-96.1224	36.9847	-49.3883	-99.3213	-0.306957	-52.2989	-124.142	47.9401	-17.4367	-121.273	25.3024	-46.0676	-120.809	-3.65586	-41.4992	-150.151	34.4754	-10.9514	-141.283	12.8791	-28.9261	-129.695	-16.1582	-14.3449	-133.171	46.3001	40.6438	-145.545	36.2155	74.8493	-107.331	37.7107	63.8184	
59	0.491667	-84.0457	1.239	75.1816	-62.6651	-6.88409	51.1395	-50.0497	-7.79903	26.3642	-48.0459	-12.1179	-1.33561	-73.6204	45.6423	-8.44996	-70.6575	32.6416	-38.09	-78.2816	2.34722	-39.5814	-100.892	51.1239	-21.5179	-95.8488	32.3095	-48.63	-103.193	-6.23095	-43.9083	-123.562	40.6801	-23.368	-119.322	12.331	-42.9111	-122.95	-17.3803	-26.6493	-149.054	27.5136	-9.97212	-140.373	-2.56035	-21.8177	-128.87	-18.2955	-1.43418	-138.576	45.4974	41.7659	-145.932	38.1769	72.9578	-102.92	36.8045	63.6576	
60	0.5	-83.1149	3.1089	75.4195	-62.1975	-5.52271	52.4473	-46.8169	-7.21428	23.4878	-47.5493	-12.4565	0.0178405	-76.2238	40.7876	-5.97537	-75.0686	28.4277	-38.3837	-80.1556	-9.41215	-33.7948	-97.1936	44.5034	-22.6871	-97.963	22.1599	-47.6795	-99.005	-18.0127	-33.7371	-124.133	33.3984	-24.0382	-123.471	1.58576	-38.9134	-121.274	-21.6397	-18.0395	-146.322	20.8551	-11.0864	-140.86	-8.45973	-16.6602	-127.944	-24.6135	8.21215	-133.376	45.5008	36.4307	-143.064	37.0112	73.4446	-107.557	36.5815	60.5079	
61	0.508333	-81.1693	3.75911	74.1136	-58.76	-6.74265	53.1392	-45.542	-9.93629	27.6984	-42.5119	-16.5716	-1.18163	-78.681	35.8413	-9.7681	-77.2162	17.4526	-39.942	-77.2658	-16.5727	-29.9679	-99.2681	33.9626	-26.9639	-100.18	4.10596	-44.9524	-101.042	-26.5519	-21.6415	-127.66	23.255	-23.476	-122.176	-10.3803	-32.8879	-124.166	-29.3331	-4.36401	-149.257	12.0064	-12.7467	-138.53	-16.567	-10.6155	-126.091	-22.8487	17.0318	-134.859	42.9316	33.4317	-142.114	36.9478	68.4474	-101.977	36.6398	62.4581	
62	0.516667	-81.2725	4.26717	74.7359	-57.3831	-4.82551	50.7486	-46.8204	-9.35437	29.2151	-42.3607	-16.2712	-0.00692319	-76.7472	28.7762	-15.7498	-76.3334	7.36289	-39.45	-80.777	-25.744	-20.3224	-99.2985	24.7762	-26.4611	-96.8762	-9.82469	-39.7008	-103.884	-33.4525	-10.8276	-125.976	12.0297	-24.2396	-119.927	-20.2628	-27.0118	-120.986	-34.2548	6.67512	-147.214	6.74661	-11.24	-137.718	-22.369	-6.75627	-125.111	-26.2366	24.7179	-133.403	40.9001	36.8939	-139.727	35.6353	68.5066	-103.296	35.5289	58.7291	
63	0.525	-80.9261	5.40959	73.0202	-56.3785	-4.26527	52.8385	-44.942	-8.1838	28.4653	-40.4986	-17.1349	1.83698	-74.7699	21.5546	-16.395	-75.2762	-6.24643	-36.3465	-77.9047	-32.2862	-11.9555	-98.9536	14.7558	-28.1673	-96.4343	-18.0273	-34.6356	-98.7563	-37.3839	0.370227	-123.109	6.81735	-21.017	-117.52	-29.0825	-18.4907	-119.477	-37.375	13.2624	-143.372	4.50369	-10.4295	-136.298	-26.3534	-4.70389	-120.566	-24.4245	26.0652	-130.696	38.2825	33.1288	-144.056	37.58	67.2908	-100.674	37.0979	55.359	
64	0.533333	-81.3929	7.28846	70.2434	-55.2929	-5.37494	54.9525	-39.3615	-8.20172	25.3373	-37.8484	-18.4442	3.72721	-73.3058	14.0407	-19.958	-73.8742	-17.4876	-32.1749	-76.0633	-36.1113	-6.10134	-94.6184	8.29244	-27.5623	-96.1946	-28.5726	-27.2958	-100.333	-39.7408	9.70378	-122.582	-2.04743	-22.5608	-117.148	-34.5302	-14.0507	-115.314	-38.4553	20.3612	-139.867	-1.7608	-10.8605	-132.081	-29.8774	-1.85153	-122.881	-29.1682	29.1473	-131.396	37.218	29.4785	-140.484	35.4769	63.7676	-100.156	34.1018	53.6291	
65	0.541667	-79.5189	6.88141	70.2084	-52.9082	-3.12376	49.8892	-40.895	-10.3273	30.3083	-33.5466	-19.0986	4.93435	-71.0734	10.5562	-16.2795	-74.7976	-24.0804	-26.9773	-78.31	-39.222	5.95056	-93.3002	1.95349	-26.5801	-97.3273	-33.7739	-22.5939	-102.468	-42.2016	12.5525	-116.071	-7.19781	-20.0825	-114.171	-38.9776	-7.53211	-116.482	-39.7606	24.8617	-137.79	-8.58919	-11.3524	-133.121	-33.5829	1.41708	-117.041	-26.6066	30.5412	-130.761	34.2505	29.2538	-141.124	37.5229	59.0715	-102.259	35.4328	52.4049	
66	0.55	-76.6612	6.74178	70.5136	-50.4763	-3.6981	54.478	-37.5107	-9.68796	28.8518	-28.1388	-20.6554	5.6041	-68.4404	5.25267	-15.2922	-72.0473	-29.4289	-22.9872	-77.002	-39.9274	11.6926	-94.0789	-3.52589	-26.0166	-91.3349	-36.3079	-21.2661	-99.163	-42.2892	20.4272	-116.045	-11.2471	-19.2777	-115.66	-42.57	-5.84954	-113.854	-42.2329	25.5878	-139.364	-8.22784	-10.961	-128.941	-33.8899	2.27322	-121.43	-29.2077	33.6135	-128.592	34.0253	27.7223	-139.45	34.4967	57.8191	-100.072	35.0569	51.9223	
